# xmcd CD database file
#
# Track frame offsets:
#	225
#	20977
#	30729
#	47829
#	57965
#	72198
#	82501
#	94887
#	105095
#	120736
#	137057
#	151472
#	165922
#	177096
#	189959
#	199124
#	210367
#	222010
#	231748
#	248874
#
# Disc length: 3419 seconds
#
# Revision: 0
# Processed by: cddbd v1.5.2PL0 Copyright (c) Steve Scherf et al.
# Submitted via: CDex 1.70beta2
#
DISCID=0a0d5814
DTITLE=Traxleři - Detrimentum Pacior
DYEAR=1900
DGENRE=Country
TTITLE0=Podivuhodná loď
TTITLE1=Přečekaje všie zlé stráže
TTITLE2=Jiná písnička
TTITLE3=Pastýřské muzicírování
TTITLE4=Čížku, ptáčku zeleného peří
TTITLE5=Noci milá
TTITLE6=Ztratila jsem milého
TTITLE7=Apolenka
TTITLE8=Sedm trpaslíků
TTITLE9=Slepí muzikanti
TTITLE10=Ach, toť těžkú žalost jmám
TTITLE11=V Strachotině hájku
TTITLE12=Slóvce M
TTITLE13=Jižť veselé vzdávám
TTITLE14=Baláda
TTITLE15=Róže
TTITLE16=Překvapení
TTITLE17=Detrimentum pacior
TTITLE18=Stala se jest příhoda
TTITLE19=Vivat vinium!
EXTD=
EXTT0=
EXTT1=
EXTT2=
EXTT3=
EXTT4=
EXTT5=
EXTT6=
EXTT7=
EXTT8=
EXTT9=
EXTT10=
EXTT11=
EXTT12=
EXTT13=
EXTT14=
EXTT15=
EXTT16=
EXTT17=
EXTT18=
EXTT19=
PLAYORDER=
